<svg width="219" height="236" viewBox="0 0 219 236" fill="none" xmlns="http://www.w3.org/2000/svg">
<path d="M110.438 7C72.1125 7 42 34.5 42 69.5C42 104.5 96.75 192.5 110.438 192.5C124.125 192.5 178.875 104.5 178.875 69.5C178.875 34.5 148.762 7 110.438 7Z" fill="#FFDE33"/>
<rect x="50.5" y="46.5" width="119" height="108" rx="54" fill="white"/>
<path d="M132.667 118.125C135.783 118.125 138.333 115.481 138.333 112.25V82.875C138.333 79.6437 135.783 77 132.667 77H87.3333C84.2167 77 81.6667 79.6437 81.6667 82.875V112.25C81.6667 115.481 84.2167 118.125 87.3333 118.125H76V124H144V118.125H132.667ZM87.3333 82.875H132.667V112.25H87.3333V82.875Z" fill="#073A4B"/>
<path d="M132.667 118.125C135.783 118.125 138.333 115.481 138.333 112.25V82.875C138.333 79.6437 135.783 77 132.667 77H87.3333C84.2167 77 81.6667 79.6437 81.6667 82.875V112.25C81.6667 115.481 84.2167 118.125 87.3333 118.125H76V124H144V118.125H132.667ZM87.3333 82.875H132.667V112.25H87.3333V82.875Z" fill="black" fill-opacity="0.2"/>
<rect x="50.5" y="46.5" width="119" height="108" rx="54" stroke="#FFDE33"/>
<path d="M14.572 229L20.248 213.6H22.8L28.432 229H25.968L24.648 225.238H18.356L17.036 229H14.572ZM19.016 223.39H23.988L21.502 216.372L19.016 223.39ZM30.4916 229V218.088H32.5816L32.7796 220.156C33.1609 219.437 33.6889 218.873 34.3636 218.462C35.0529 218.037 35.8816 217.824 36.8496 217.824V220.266H36.2116C35.5662 220.266 34.9869 220.376 34.4736 220.596C33.9749 220.801 33.5716 221.161 33.2636 221.674C32.9702 222.173 32.8236 222.869 32.8236 223.764V229H30.4916ZM43.6522 229.264C42.6109 229.264 41.6722 229.029 40.8362 228.56C40.0149 228.076 39.3622 227.409 38.8782 226.558C38.3942 225.693 38.1522 224.688 38.1522 223.544C38.1522 222.4 38.3942 221.403 38.8782 220.552C39.3769 219.687 40.0442 219.019 40.8802 218.55C41.7162 218.066 42.6476 217.824 43.6742 217.824C44.7156 217.824 45.6469 218.066 46.4682 218.55C47.3042 219.019 47.9642 219.687 48.4482 220.552C48.9469 221.403 49.1962 222.4 49.1962 223.544C49.1962 224.688 48.9469 225.693 48.4482 226.558C47.9642 227.409 47.3042 228.076 46.4682 228.56C45.6322 229.029 44.6936 229.264 43.6522 229.264ZM43.6522 227.262C44.2096 227.262 44.7229 227.123 45.1922 226.844C45.6762 226.565 46.0649 226.155 46.3582 225.612C46.6516 225.055 46.7982 224.365 46.7982 223.544C46.7982 222.723 46.6516 222.041 46.3582 221.498C46.0796 220.941 45.6982 220.523 45.2142 220.244C44.7449 219.965 44.2316 219.826 43.6742 219.826C43.1169 219.826 42.5962 219.965 42.1122 220.244C41.6429 220.523 41.2616 220.941 40.9682 221.498C40.6749 222.041 40.5282 222.723 40.5282 223.544C40.5282 224.365 40.6749 225.055 40.9682 225.612C41.2616 226.155 41.6429 226.565 42.1122 226.844C42.5816 227.123 43.0949 227.262 43.6522 227.262ZM55.7441 229.264C54.4241 229.264 53.3828 228.853 52.6201 228.032C51.8721 227.211 51.4981 225.986 51.4981 224.358V218.088H53.8301V224.116C53.8301 226.228 54.6955 227.284 56.4261 227.284C57.2915 227.284 58.0028 226.976 58.5601 226.36C59.1175 225.744 59.3961 224.864 59.3961 223.72V218.088H61.7281V229H59.6601L59.4841 227.086C59.1468 227.761 58.6481 228.296 57.9881 228.692C57.3428 229.073 56.5948 229.264 55.7441 229.264ZM64.6947 229V218.088H66.7627L66.9387 220.002C67.276 219.327 67.7674 218.799 68.4127 218.418C69.0727 218.022 69.828 217.824 70.6787 217.824C71.9987 217.824 73.0327 218.235 73.7807 219.056C74.5434 219.877 74.9247 221.102 74.9247 222.73V229H72.6147V222.972C72.6147 220.86 71.7494 219.804 70.0187 219.804C69.1534 219.804 68.4347 220.112 67.8627 220.728C67.3054 221.344 67.0267 222.224 67.0267 223.368V229H64.6947ZM82.6433 229.264C81.5873 229.264 80.6559 229.015 79.8493 228.516C79.0426 228.017 78.4119 227.335 77.9573 226.47C77.5026 225.605 77.2753 224.622 77.2753 223.522C77.2753 222.422 77.5026 221.447 77.9573 220.596C78.4119 219.731 79.0426 219.056 79.8493 218.572C80.6706 218.073 81.6093 217.824 82.6653 217.824C83.5306 217.824 84.2859 217.993 84.9313 218.33C85.5913 218.667 86.1046 219.144 86.4713 219.76V213.16H88.8033V229H86.7133L86.4713 227.306C86.1193 227.819 85.6353 228.274 85.0193 228.67C84.4033 229.066 83.6113 229.264 82.6433 229.264ZM83.0613 227.24C84.0586 227.24 84.8726 226.895 85.5033 226.206C86.1486 225.517 86.4713 224.629 86.4713 223.544C86.4713 222.444 86.1486 221.557 85.5033 220.882C84.8726 220.193 84.0586 219.848 83.0613 219.848C82.0639 219.848 81.2426 220.193 80.5973 220.882C79.9519 221.557 79.6293 222.444 79.6293 223.544C79.6293 224.263 79.7759 224.901 80.0693 225.458C80.3626 226.015 80.7659 226.455 81.2793 226.778C81.8073 227.086 82.4013 227.24 83.0613 227.24ZM101.863 229C100.792 229 99.9412 228.743 99.3105 228.23C98.6798 227.702 98.3645 226.771 98.3645 225.436V220.046H96.4945V218.088H98.3645L98.6505 215.316H100.697V218.088H103.777V220.046H100.697V225.436C100.697 226.037 100.821 226.455 101.071 226.69C101.335 226.91 101.782 227.02 102.413 227.02H103.667V229H101.863ZM106.181 229V213.16H108.513V219.848C108.88 219.217 109.386 218.726 110.031 218.374C110.691 218.007 111.417 217.824 112.209 217.824C113.514 217.824 114.541 218.235 115.289 219.056C116.037 219.877 116.411 221.102 116.411 222.73V229H114.101V222.972C114.101 220.86 113.258 219.804 111.571 219.804C110.691 219.804 109.958 220.112 109.371 220.728C108.799 221.344 108.513 222.224 108.513 223.368V229H106.181ZM124.262 229.264C123.191 229.264 122.238 229.029 121.402 228.56C120.58 228.076 119.935 227.409 119.466 226.558C118.996 225.707 118.762 224.717 118.762 223.588C118.762 222.444 118.989 221.439 119.444 220.574C119.913 219.709 120.558 219.034 121.38 218.55C122.216 218.066 123.184 217.824 124.284 217.824C125.354 217.824 126.286 218.066 127.078 218.55C127.87 219.019 128.486 219.65 128.926 220.442C129.366 221.234 129.586 222.107 129.586 223.06C129.586 223.207 129.578 223.368 129.564 223.544C129.564 223.705 129.556 223.889 129.542 224.094H121.05C121.123 225.15 121.468 225.957 122.084 226.514C122.714 227.057 123.44 227.328 124.262 227.328C124.922 227.328 125.472 227.181 125.912 226.888C126.366 226.58 126.704 226.169 126.924 225.656H129.256C128.962 226.683 128.376 227.541 127.496 228.23C126.63 228.919 125.552 229.264 124.262 229.264ZM124.262 219.738C123.484 219.738 122.795 219.973 122.194 220.442C121.592 220.897 121.226 221.586 121.094 222.51H127.254C127.21 221.659 126.909 220.985 126.352 220.486C125.794 219.987 125.098 219.738 124.262 219.738ZM142.718 229.264C141.648 229.264 140.687 229.022 139.836 228.538C139 228.054 138.34 227.387 137.856 226.536C137.387 225.671 137.152 224.673 137.152 223.544C137.152 222.415 137.387 221.425 137.856 220.574C138.34 219.709 139 219.034 139.836 218.55C140.687 218.066 141.648 217.824 142.718 217.824C144.068 217.824 145.197 218.176 146.106 218.88C147.03 219.584 147.624 220.537 147.888 221.74H145.446C145.3 221.139 144.977 220.669 144.478 220.332C143.98 219.995 143.393 219.826 142.718 219.826C142.146 219.826 141.618 219.973 141.134 220.266C140.65 220.545 140.262 220.963 139.968 221.52C139.675 222.063 139.528 222.737 139.528 223.544C139.528 224.351 139.675 225.033 139.968 225.59C140.262 226.133 140.65 226.551 141.134 226.844C141.618 227.137 142.146 227.284 142.718 227.284C143.393 227.284 143.98 227.115 144.478 226.778C144.977 226.441 145.3 225.964 145.446 225.348H147.888C147.639 226.521 147.052 227.467 146.128 228.186C145.204 228.905 144.068 229.264 142.718 229.264ZM155.521 229.264C154.48 229.264 153.541 229.029 152.705 228.56C151.884 228.076 151.231 227.409 150.747 226.558C150.263 225.693 150.021 224.688 150.021 223.544C150.021 222.4 150.263 221.403 150.747 220.552C151.246 219.687 151.913 219.019 152.749 218.55C153.585 218.066 154.517 217.824 155.543 217.824C156.585 217.824 157.516 218.066 158.337 218.55C159.173 219.019 159.833 219.687 160.317 220.552C160.816 221.403 161.065 222.4 161.065 223.544C161.065 224.688 160.816 225.693 160.317 226.558C159.833 227.409 159.173 228.076 158.337 228.56C157.501 229.029 156.563 229.264 155.521 229.264ZM155.521 227.262C156.079 227.262 156.592 227.123 157.061 226.844C157.545 226.565 157.934 226.155 158.227 225.612C158.521 225.055 158.667 224.365 158.667 223.544C158.667 222.723 158.521 222.041 158.227 221.498C157.949 220.941 157.567 220.523 157.083 220.244C156.614 219.965 156.101 219.826 155.543 219.826C154.986 219.826 154.465 219.965 153.981 220.244C153.512 220.523 153.131 220.941 152.837 221.498C152.544 222.041 152.397 222.723 152.397 223.544C152.397 224.365 152.544 225.055 152.837 225.612C153.131 226.155 153.512 226.565 153.981 226.844C154.451 227.123 154.964 227.262 155.521 227.262ZM163.587 229V218.088H165.677L165.875 220.156C166.257 219.437 166.785 218.873 167.459 218.462C168.149 218.037 168.977 217.824 169.945 217.824V220.266H169.307C168.662 220.266 168.083 220.376 167.569 220.596C167.071 220.801 166.667 221.161 166.359 221.674C166.066 222.173 165.919 222.869 165.919 223.764V229H163.587ZM171.945 229V218.088H174.013L174.189 220.002C174.526 219.327 175.017 218.799 175.663 218.418C176.323 218.022 177.078 217.824 177.929 217.824C179.249 217.824 180.283 218.235 181.031 219.056C181.793 219.877 182.175 221.102 182.175 222.73V229H179.865V222.972C179.865 220.86 178.999 219.804 177.269 219.804C176.403 219.804 175.685 220.112 175.113 220.728C174.555 221.344 174.277 222.224 174.277 223.368V229H171.945ZM190.025 229.264C188.955 229.264 188.001 229.029 187.165 228.56C186.344 228.076 185.699 227.409 185.229 226.558C184.76 225.707 184.525 224.717 184.525 223.588C184.525 222.444 184.753 221.439 185.207 220.574C185.677 219.709 186.322 219.034 187.143 218.55C187.979 218.066 188.947 217.824 190.047 217.824C191.118 217.824 192.049 218.066 192.841 218.55C193.633 219.019 194.249 219.65 194.689 220.442C195.129 221.234 195.349 222.107 195.349 223.06C195.349 223.207 195.342 223.368 195.327 223.544C195.327 223.705 195.32 223.889 195.305 224.094H186.813C186.887 225.15 187.231 225.957 187.847 226.514C188.478 227.057 189.204 227.328 190.025 227.328C190.685 227.328 191.235 227.181 191.675 226.888C192.13 226.58 192.467 226.169 192.687 225.656H195.019C194.726 226.683 194.139 227.541 193.259 228.23C192.394 228.919 191.316 229.264 190.025 229.264ZM190.025 219.738C189.248 219.738 188.559 219.973 187.957 220.442C187.356 220.897 186.989 221.586 186.857 222.51H193.017C192.973 221.659 192.673 220.985 192.115 220.486C191.558 219.987 190.861 219.738 190.025 219.738ZM197.769 229V218.088H199.859L200.057 220.156C200.438 219.437 200.966 218.873 201.641 218.462C202.33 218.037 203.159 217.824 204.127 217.824V220.266H203.489C202.844 220.266 202.264 220.376 201.751 220.596C201.252 220.801 200.849 221.161 200.541 221.674C200.248 222.173 200.101 222.869 200.101 223.764V229H197.769Z" fill="#FFDE33"/>
</svg>
